<?xml version="1.0" encoding="UTF-8" standalone="no"?>
<!DOCTYPE svg PUBLIC "-//W3C//DTD SVG 1.1//EN" "http://www.w3.org/Graphics/SVG/1.1/DTD/svg11.dtd">
<svg width="100%" height="100%" viewBox="0 0 500 500" version="1.1" xmlns="http://www.w3.org/2000/svg" xmlns:xlink="http://www.w3.org/1999/xlink" xml:space="preserve" xmlns:serif="http://www.serif.com/" style="fill-rule:evenodd;clip-rule:evenodd;stroke-linejoin:round;stroke-miterlimit:2;">
    <path d="M70,425C52.83,425 50.465,408.18 50.465,390L50,116.745C50,96.375 66.295,79.805 86.325,79.805L223.68,79.805C243.71,79.805 260.005,96.03 260.005,115.975L260.005,127.5C260.005,131.53 263.28,134.805 267.31,134.805L402.7,134.805C412.24,134.805 420.005,142.57 420.005,152.11L420.005,185L410.005,185L410.005,152.11C410.005,148.08 406.73,144.805 402.7,144.805L267.305,144.805C257.765,144.805 250,137.04 250,127.5L250,115.975C250,101.545 238.195,89.805 223.675,89.805L86.325,89.805C71.81,89.805 60,101.89 60,116.745L60,149.12L60.465,389.99C60.465,415 66.2,415 70,415L70,425Z" style="fill-rule:nonzero;"/>
    <path d="M77.5,159.805C76.12,159.805 75,158.685 75,157.305L75,132.525C75,117.24 86.995,104.805 101.745,104.805L192.5,104.805C193.88,104.805 195,105.925 195,107.305C195,108.685 193.88,109.805 192.5,109.805L101.745,109.805C89.755,109.805 80,120 80,132.525L80,157.305C80,158.685 78.88,159.805 77.5,159.805ZM232.71,135.235C231.33,135.235 230.21,134.115 230.21,132.735C230.21,120.205 220.455,110.01 208.465,110.01C207.085,110.01 205.965,108.89 205.965,107.51C205.965,106.13 207.085,105.01 208.465,105.01C223.21,105.01 235.21,117.445 235.21,132.735C235.21,134.115 234.09,135.235 232.71,135.235ZM424.585,425L68.75,425C65.985,425 63.75,422.765 63.75,420C63.75,417.235 65.985,415 68.75,415C70.11,415 70.725,414.575 71.18,414.12C75.145,410.135 75.075,394.915 75.02,380.195L75,373.75L75,185C75,182.24 77.235,180 80,180L440,180C442.765,180 445,182.24 445,185L445,404.585C445,415.84 435.84,425 424.585,425ZM82.1,415L424.585,415C430.325,415 435,410.325 435,404.585L435,190L85,190L85.02,380.155C85.085,395.235 85.13,407.13 82.1,415Z" style="fill-rule:nonzero;"/>
    <path d="M247.5,265L127.5,265C126.12,265 125,263.88 125,262.5L125,212.5C125,211.12 126.12,210 127.5,210L247.5,210C248.88,210 250,211.12 250,212.5L250,262.5C250,263.88 248.88,265 247.5,265ZM130,260L245,260L245,215L130,215L130,260Z" style="fill-rule:nonzero;"/>
    <g transform="matrix(1.40084,0,0,1.40084,-46.3236,-142.564)">
        <text x="101.695px" y="364.407px" style="font-family:'WasyekpuRegular', 'Wasyekpu';font-size:120.129px;">space</text>
    </g>
</svg>
