<?xml version="1.0" encoding="UTF-8" standalone="no"?>
<!DOCTYPE svg PUBLIC "-//W3C//DTD SVG 1.1//EN" "http://www.w3.org/Graphics/SVG/1.1/DTD/svg11.dtd">
<svg width="100%" height="100%" viewBox="0 0 67 65" version="1.1" xmlns="http://www.w3.org/2000/svg" xmlns:xlink="http://www.w3.org/1999/xlink" xml:space="preserve" xmlns:serif="http://www.serif.com/" style="fill-rule:evenodd;clip-rule:evenodd;stroke-linejoin:round;stroke-miterlimit:2;">
    <g transform="matrix(0.44,0,0,0.44,11.481,0)">
        <path d="M96.515,26.779L59.594,1.78C58.634,1.13 57.44,0.925 56.32,1.214L8.63,13.521C6.846,13.981 5.6,15.59 5.6,17.433L5.6,61.854C5.6,62.904 6.008,63.912 6.739,64.666L36.738,95.626C37.512,96.425 38.565,96.855 39.64,96.855C40.082,96.855 40.527,96.783 40.959,96.633L93.263,78.56C94.819,78.022 95.893,76.594 95.978,74.951L98.286,30.334C98.357,28.92 97.687,27.572 96.515,26.779ZM56.573,9.493L85.701,29.215L68.135,34.579L40.355,13.678L56.573,9.493ZM41.342,42.761L16.096,19.938L33.685,15.399L61.763,36.524L41.342,42.761ZM13.679,60.218L13.679,25.013L38.099,47.089L38.099,85.419L13.679,60.218ZM43.485,87.21L43.485,47.738L90.028,33.525L88.049,71.812L43.485,87.21Z" style="fill:rgb(0,147,111);fill-rule:nonzero;"/>
    </g>
    <g transform="matrix(1.2278,0,0,1.2278,-0.0730531,-17.1931)">
        <text x="0.207px" y="62.418px" style="font-family:'AquireBold', 'Aquire';font-weight:700;font-size:17.137px;fill:rgb(23,193,195);">Sp<tspan x="19.88px 32.476px 45.122px " y="62.418px 62.418px 62.418px ">ace</tspan></text>
    </g>
</svg>
