<?xml version="1.0" encoding="UTF-8" standalone="no"?><!DOCTYPE svg PUBLIC "-//W3C//DTD SVG 1.1//EN" "http://www.w3.org/Graphics/SVG/1.1/DTD/svg11.dtd"><svg width="100%" height="100%" viewBox="0 0 67 65" version="1.1" xmlns="http://www.w3.org/2000/svg" xmlns:xlink="http://www.w3.org/1999/xlink" xml:space="preserve" xmlns:serif="http://www.serif.com/" style="fill-rule:evenodd;clip-rule:evenodd;stroke-linejoin:round;stroke-miterlimit:1.41421;"><path d="M53.948,11.783l-16.246,-11c-0.422,-0.286 -0.947,-0.376 -1.44,-0.249l-20.984,5.415c-0.785,0.203 -1.333,0.911 -1.333,1.722l0,19.545c0,0.462 0.18,0.905 0.501,1.237l13.2,13.622c0.34,0.352 0.804,0.541 1.277,0.541c0.194,0 0.39,-0.031 0.58,-0.097l23.014,-7.953c0.684,-0.236 1.157,-0.865 1.194,-1.588l1.016,-19.631c0.031,-0.622 -0.264,-1.215 -0.779,-1.564Zm-17.575,-7.606l12.816,8.678l-7.729,2.36l-12.223,-9.197l7.136,-1.841Zm-6.702,14.638l-11.108,-10.042l7.739,-1.997l12.355,9.295l-8.986,2.744Zm-12.171,7.681l0,-15.49l10.745,9.713l0,16.865l-10.745,-11.088Zm13.114,11.876l0,-17.367l20.479,-6.254l-0.87,16.846l-19.609,6.775Z" style="fill:#00936f;fill-rule:nonzero;"/><text x="0.182px" y="59.444px" style="font-family:'AquireBold', 'Aquire';font-weight:700;font-size:21.04px;fill:#1c2149;">Sp<tspan x="24.336px 39.8px 55.328px " y="59.444px 59.444px 59.444px ">ace</tspan></text></svg>